<svg xmlns="http://www.w3.org/2000/svg" xmlns:xlink="http://www.w3.org/1999/xlink" width="442" height="47.559" viewBox="0 0 442 47.559">
  <defs>
    <linearGradient id="linear-gradient" y1="0.5" x2="1" y2="0.5" gradientUnits="objectBoundingBox">
      <stop offset="0" stop-color="#fff" stop-opacity="0"/>
      <stop offset="0.8" stop-color="#fff" stop-opacity="0.698"/>
      <stop offset="1" stop-color="#fff"/>
    </linearGradient>
  </defs>
  <g id="Raggruppa_1741" data-name="Raggruppa 1741" transform="translate(-14.051 -14.173)">
    <g id="Raggruppa_457" data-name="Raggruppa 457" transform="translate(186.642 17.984)">
      <rect id="Rettangolo_819" data-name="Rettangolo 819" width="40.287" height="16.327" fill="url(#linear-gradient)"/>
    </g>
    <g id="Raggruppa_458" data-name="Raggruppa 458" transform="translate(186.642 41.681)">
      <rect id="Rettangolo_820" data-name="Rettangolo 820" width="43.615" height="16.327" fill="url(#linear-gradient)"/>
    </g>
    <g id="Raggruppa_459" data-name="Raggruppa 459" transform="translate(14.051 14.173)">
      <path id="Tracciato_168" data-name="Tracciato 168" d="M1279.739,34.183h-25.254a5.8,5.8,0,0,1,0-11.576h24.7v-8.03h-24.7c-7.224,0-13.1,6.2-13.1,13.817s5.877,13.818,13.1,13.818h25.254a5.849,5.849,0,0,1,0,11.681h-38.35v8.03h38.35c7.252,0,13.151-6.222,13.151-13.871S1286.99,34.183,1279.739,34.183Z" transform="translate(-850.89 -14.442)" fill="#fff"/>
      <path id="Tracciato_169" data-name="Tracciato 169" d="M410.071,14.5H373.86V61.916h7.614V46.77h28.6c8.435,0,15.3-7.237,15.3-16.133S418.505,14.5,410.071,14.5Zm0,24.236h-28.6V22.534h28.6a7.911,7.911,0,0,1,7.683,8.1A7.911,7.911,0,0,1,410.071,38.74Z" transform="translate(-259.382 -14.393)" fill="#fff"/>
      <path id="Tracciato_170" data-name="Tracciato 170" d="M190.143,38.228c0,13.082,10.091,23.724,22.494,23.724H241.65V34.237l-28.975-.182-.045,8.03,21.407.134v11.7h-21.4c-8.205,0-14.881-7.04-14.881-15.695s6.675-15.694,14.881-15.694h29.054V14.5H212.637C200.234,14.5,190.143,25.147,190.143,38.228Z" transform="translate(-134.117 -14.393)" fill="#fff"/>
      <path id="Tracciato_171" data-name="Tracciato 171" d="M752.23,14.546l-23.4,47.4h8.584l5.129-10.391h28.959l5.129,10.391h8.584l-23.4-47.4Zm-5.72,28.977,10.516-21.3,10.516,21.3Z" transform="translate(-501.416 -14.421)" fill="#fff"/>
      <path id="Tracciato_172" data-name="Tracciato 172" d="M931.482,14.545h-7.614v47.4H968v-8.03h-36.52Z" transform="translate(-634.397 -14.42)" fill="#fff"/>
      <path id="Tracciato_173" data-name="Tracciato 173" d="M1090.467,14.545h-7.614v47.4h44.134v-8.03h-36.521Z" transform="translate(-742.798 -14.42)" fill="#fff"/>
      <path id="Tracciato_177" data-name="Tracciato 177" d="M8.17,0a7.463,7.463,0,0,1,7.744,7.744,8.486,8.486,0,0,1-8.167,8.167A7.463,7.463,0,0,1,0,8.17,8.486,8.486,0,0,1,8.17,0Z" transform="translate(204.822 35.672) rotate(-45)" fill="#fff"/>
      <path id="Tracciato_178" data-name="Tracciato 178" d="M8.256,0a7.608,7.608,0,0,1,7.955,7.656,8.331,8.331,0,0,1-8.255,7.955A7.608,7.608,0,0,1,0,7.957,8.331,8.331,0,0,1,8.256,0Z" transform="translate(202.563 16.476) rotate(-67.5)" fill="#fff"/>
      <path id="Tracciato_174" data-name="Tracciato 174" d="M1377.557,23.436h1.142l.794,1.082h.9l-.889-1.15a1.277,1.277,0,0,0,.942-1.294c0-.781-.413-1.35-1.576-1.35h-2.02v3.794h.709Zm0-2.02h1.28c.688,0,.91.179.91.658,0,.5-.222.658-.91.658h-1.28Z" transform="translate(-943.255 -18.526)" fill="#fff"/>
      <path id="Tracciato_175" data-name="Tracciato 175" d="M1372.637,22.464c2.846,0,4.359-1.7,4.359-4.139s-1.513-4.151-4.359-4.151-4.369,1.707-4.369,4.151S1369.8,22.464,1372.637,22.464Zm0-7.587c2.4,0,3.661,1.35,3.661,3.448s-1.27,3.436-3.661,3.436-3.66-1.339-3.66-3.436S1370.247,14.876,1372.637,14.876Z" transform="translate(-937.405 -14.173)" fill="#fff"/>
      <path id="Tracciato_176" data-name="Tracciato 176" d="M65.558,30.637c0-8.9-6.862-16.133-15.3-16.133H14.051V61.916h7.614V46.77H49.9L56.54,61.916h8.388L57.454,44.87A16.283,16.283,0,0,0,65.558,30.637Zm-15.3,8.1h-28.6V22.534h28.6a7.911,7.911,0,0,1,7.683,8.1A7.911,7.911,0,0,1,50.261,38.74Z" transform="translate(-14.051 -14.393)" fill="#fff"/>
    </g>
  </g>
</svg>
